<svg xmlns="http://www.w3.org/2000/svg" viewBox="0 0 125.58 167.76"><defs><style>.cls-1{fill:#4081ec;}.cls-2{fill:red;}.cls-3{fill:#f3b605;}.cls-4{fill:#32a350;}</style></defs><title>Fichier 1</title><g id="Calque_2" data-name="Calque 2"><g id="Calque_1-2" data-name="Calque 1"><path class="cls-1" d="M83,.38C70.15,2,57.59,9.22,43,27.38.66,79.91-8.33,161.23,7,167.38c3.38,1.36,7.29-1.24,10-3,16.39-10.66,8.79-35,18-67,1.84-6.41,9.24-31.18,29-51,25-25.1,54.1-26.52,53-35C116.06,4.42,98.46-1.59,83,.38Z"/><path class="cls-2" d="M92,41.38c-14,28.78-12.88,63.92-12,70a53.81,53.81,0,0,0,1.58,6.88,23.42,23.42,0,0,0,2,5,16,16,0,0,0,3,4c1.27,1.23,2.4,2.3,3,2,1-.49-.53-4.15-1-10a62.15,62.15,0,0,1,0-7C89,102.59,104,83.36,110,73.38c10.69-17.81,13.64-41.13,7-46-3.92-2.87-12.9.89-18,5A25.62,25.62,0,0,0,92,41.38Z"/><path class="cls-3" d="M77,129.38c-2.36.51-3.11-19.82-16-27-6.86-3.82-13.52-2-16-7-1.5-3-.42-6.75,1-9,2.88-4.59,8.42-5,10-5,5.62-.1,9.74,3.62,11.38,5.32l.62.68c3.49,4,5.43,9.58,8,21,1.55,6.91,1.93,9.73,2,13C78,124.3,78.11,129.13,77,129.38Z"/><path class="cls-4" d="M91.21,153.46c6.91,8.19,16,12.11,21.32,11.77a12.41,12.41,0,0,0,8.78-4c.67-.76,6.5-7.28,3.33-15.89-1.79-4.87-6.09-9.41-9.82-9.86-2-.24-4.25,1.18-8.78,4-2.12,1.34-2.86,2-4.38,2-.63,0-2.28-.07-7.11-3.92-1.8-1.44-3.21-2.73-4.15-3.64-5.07-4.27-7.14-4.65-8.06-4C79.66,131.72,83.58,144.41,91.21,153.46Z"/></g></g></svg>